<?xml version="1.0" encoding="UTF-8"?><svg id="b" xmlns="http://www.w3.org/2000/svg" viewBox="0 0 926.61 296.2"><defs><style>.d{stroke-width:0px;}</style></defs><g id="c"><path class="d" d="m792.46,253.96v-37.5c6.56,4.21,27.56,4.14,31.9-1.1v46.69c34.93,11.23,68.59,22.05,102.25,32.87-.13.42-.25.85-.38,1.27-308.61-67.33-617.22-67.42-925.83-.09-.13-.4-.27-.81-.4-1.21,33.6-10.81,67.2-21.62,101.2-32.55v-43.31c.35-.28.71-.56,1.06-.84,3.36,3.38,7.7,6.25,9.82,10.29,2.15,4.08,2.11,9.31,3.1,14.4h4.96c0-4.63.57-9.15-.11-13.48-1.62-10.31,5.18-15.15,12.62-20.84v33.6h6.47c0-2.66,0-5.27,0-7.88,0-13.5-.25-27.01.15-40.49.12-3.95,2.07-7.84,3.17-11.76.42.12.84.24,1.26.36.2,2.28.4,4.56.6,6.84.32.02.64.04.96.06,1.35-3.01,2.73-6.01,4.05-9.03.33-.75.27-1.76.75-2.34,1.73-2.09,3.62-4.05,5.44-6.06,1.99,2.02,4.38,3.79,5.85,6.13,1.74,2.77,2.67,6.04,4.27,9.84.87-1.72,1.37-2.7,1.94-3.83.44.71,1.12,1.89,1.16,1.87,4.17-2.24,9.06,1.31,14.18-2.01.44,4.36,1.17,8.45,1.21,12.54.16,14.33.09,28.66.12,43,0,.32.17.63.37,1.31h5.23c.74-21.8,1.47-43.57,2.22-65.85h16.16v-22.12c2.04-1.73,3.48-2.96,4.48-3.8,1.92,4.3,7.02.79,11.22,3.03v82.28c.57.04,1.15.08,1.72.12.16-1.62.44-3.23.44-4.85.04-11,0-22,.03-33,.01-5.74,2.36-8.29,8.14-7.99,4.12.22,8.84-1.94,12.24,2.12,2.89,3.45,5.55,6.8,5.18,12.02-.54,7.63-.16,15.32-.12,22.99,0,1.54.23,3.09.36,4.63.55.08,1.11.16,1.66.24.34-1.64.95-3.27.96-4.91.09-10.17.02-20.33.04-30.5.01-5.48.32-5.85,5.69-7.09,0-17.91-.15-35.89.08-53.88.08-6.43,1.06-12.85,1.64-19.44h21.66c4.08,23.48.94,47.02,2.04,70.42.02.46.29.91.56,1.69h16.68c1.19-3.22-1.19-7.7,3.94-9.23.61-.18-.11-3.58.51-5.21,4.54-11.94,2.19-24.36,2.88-36.57.62-11.01,1.59-21.99,2.46-32.98.06-.77.33-1.76.87-2.21,6.66-5.53,5.54-13.26,6.04-20.58.42-6.3,1-12.58,2.36-18.83.67,9.15,1.04,18.33,2.18,27.42.44,3.53,2.66,6.82,3.99,10.25.79,2.04,1.69,4.09,2.12,6.22,3.89,19.13,2.43,38.52,2.86,57.83.04,1.98,1.76,3.97,2.87,5.86,3.87,6.56,2.98,14.11,4.61,21.12.32,1.37,2.14,3.26,3.43,3.39,9.03.93,9.05.8,9.21,10.07.02.82.09,1.64.16,2.83h16.4v-89.97c2.62-.26,4.71-.47,5.81-.59,2.66-3.59,4.9-6.61,6.55-8.84,1.71.81,4.03,2.51,4.6,2.05,1.61-1.3,2.51-3.48,2.94-4.16.71,8.42,1.55,18.34,2.33,27.62,3.25.83,6.73.72,8.44,2.41,1.94,1.92,2.64,5.37,3.25,8.28.67,3.21.63,6.57.92,10.18,2.26.15,4.36.28,7.04.46v60.62h6.32v-77.53h12.07v77.05h7.95c0-2.43-.32-4.62.09-6.66.42-2.05,1.6-3.94,2.4-5.92.53-1.3,1.38-2.63,1.41-3.96.14-8,.34-16.01-.06-23.99-.16-3.25-1.77-6.42-2.89-10.18,2.79-.33,4.54-.54,5.32-.63,1.75-3.72,3.27-6.83,4.67-10,.32-.72.3-1.61.3-2.43.05-5.21.18-10.41.06-15.62-.16-7.06-.83-14.12-.71-21.18.08-4.9,1.15-9.78,1.69-14.67.15-1.31.49-3.53-.07-3.84-3.65-2-2.57-4.53-1.25-7.21,1.95-3.97,3.81-7.89-.24-11.79-.47-.45-.63-1.7-.37-2.34,1.84-4.49-1.66-7.71-2.59-11.53-.42-1.73-1.54-3.77-1.02-5.19,4.05-11.14,1.86-21.9-1.29-32.73-1.03-3.56-2.42-7.56-1.72-10.96.94-4.57,1.58-10.07,8.16-12.95-.07,5.72,3.37,9.83,1.27,16.14-1.84,5.52,0,12.29.36,18.5.08,1.47.91,2.89,1.03,4.36.38,4.71,2.79,6.4,7.83,5.13-1.02-1.48-1.94-2.82-3.28-4.77,2.71,1.36,4.78,2.41,7.42,3.73.54-2.89.94-5.01,1.34-7.13.25,0,.5,0,.75.01.31,2.01.62,4.03,1.13,7.37,3.02-1.85,5.49-3.37,8.47-5.19-1.61,2.15-2.91,3.89-4.82,6.45,2.85-.39,4.7-.65,7.51-1.03-2.42,1.46-4.02,2.42-6.49,3.92,2.78.56,4.61.93,7.67,1.55-2.95.36-4.67.57-6.96.85,0,3.94-.06,7.84.05,11.74.02.73.62,1.5,1.08,2.16,2.66,3.81,5.36,7.59,8.05,11.39.21-.3.85-1.53,1.77-2.47,1.57-1.61,3.3-2.75,5.51-.75.97.88,2.21,1.48,3.33,2.19,4.72,3.03,5.72,7.51,1.39,10.95-5.02,3.98-6.66,9.45-8.84,14.82-.27.67-.03,1.6.1,2.39,1.54,8.99,3.26,17.95,4.56,26.98.34,2.35-.57,4.89-.98,7.34-1.45,8.81,2.78,16.77,3.79,25.6,1.64.23,3.37.47,5.66.78-2.1,14.99-5.85,30.02,2.78,44.64,3.56.16,7.6.34,11.73.52-.4,2.41-.69,4.22-.99,6.03.53.06,1.06.12,1.59.18v-27.08h20.41c0-2.48,0-4.25,0-6.02,0-22.17-.11-44.33.1-66.5.04-4.25,1.3-8.5,2.1-12.73.1-.52.94-1.37,1.26-1.29,4.93,1.11,5.28-2.89,6.87-5.79,2.38-4.38,5.4-4.48,7.63-.08,2.14,4.21,3.57,8.78,5.34,13.27.94,0,3.23-.6,4.78.21,1.02.54,1.31,3.12,1.32,4.79.09,33.16.08,66.33.11,99.49,0,1.51.24,3.03,1.25,4.67-1.76-11.63,2.71-21.07,9.63-30.17,3.04,5.19,7.08,9.91,8.59,15.32,1.46,5.23.32,11.19.32,16.82.68,0,1.35,0,2.03.01v-36.72c2.81-.2,4.58-.32,6.45-.45,1.19-6.19.94-13.02,3.85-18.01,3.82-6.56.98-13.92,4.69-20.27,1.75-2.99,1.69-7.25,1.78-10.95.22-9.66-.27-19.35.21-28.99.25-4.93,2.11-9.76,2.98-14.68,1.86-10.53,3.55-21.08,5.29-31.51.07.63.29,1.62.27,2.61-.21,11.74,2.64,22.9,5.99,34.03,1.23,4.1,1.76,8.51,1.92,12.8.29,7.99-.2,16.01.19,23.99.24,4.85,1.56,9.64,2.34,14.46.57,3.55.93,7.14,1.61,10.67.78,4.05,1.95,8.03,2.7,12.09.98,5.27,1.71,10.58,2.6,16.18h9.35c1.82-15.37-1.93-31.02,3.76-46.11.37,1.87.74,3.74,1.11,5.6l1,.04c.3-1.66.6-3.33.94-5.23h14.9c.38,6.23,1.04,12.27,1.07,18.31.13,21.83.04,43.66.06,65.5,0,1.83.22,3.65,1.14,5.48-.42-19.16,1.5-37.94,6.56-56.14,4.65-1.8,6.49.36,7.05,4.29.72,5.04.5,10.4,2.17,15.09,4.46,12.53,1.25,25.34,2.41,37.95.07.71.5,1.39,1.9,2.1.19-1.26.54-2.52.54-3.79.05-22.67.07-45.33.04-68,0-1.64-.41-3.28-.62-4.93-.4-3.07-.33-5.82,3.85-5.4,1.35-6.82.87-14.28,9.36-17.53.87-7.04,1.79-14.54,2.71-22.04.31-.02.62-.04.92-.06.95,7.48,1.9,14.97,2.82,22.17,8.65,2.92,7.76,10.56,9.41,17.32,4.46-.06,3.67,3.13,3.66,6.4-.13,21.81-.07,43.61-.07,65.57,2.07-.85,4.14-1.69,6.64-2.72,0-13.14.02-26.44-.01-39.75-.01-5.54,3.02-9.79,6-13.95,1.68-2.34,4.82-2.9,6.41-.4,2.69,4.26,6.09,8.97,6.39,13.67.85,13.59.3,27.27.3,42.04,1.59-1.13,2.51-1.55,3.12-2.25,2.53-2.93,5.04-5.89,7.37-8.97.62-.82.77-2.13.8-3.23.1-3.66.35-7.37-.03-10.99-.62-5.87,2.88-10.1,5.42-14.68.61-1.1,2.72-1.38,4.27-2.1,1.08-9.74-2.37-20.36,4.94-29.39,7.31,8.77,4.19,19.31,5.07,29.14,6.38,2.4,7.98,8.08,9.36,13.81.38,1.57.04,3.32.07,4.99.08,5.69-1.14,11.46,4.63,15.86,3.67,2.8,4.21,7.53,4.03,12.29-.32,8.32-.16,16.66-.05,24.99.02,1.62.74,3.23,1.13,4.84.74-.14,1.49-.28,2.23-.42Zm-157.12-66.19c-2.07.56-4.35.53-4.83,1.45-.73,1.36-.19,3.4-.19,5.44,1.97-.1,3.38-.17,5.02-.26v-6.63Z"/></g></svg>