<?xml version="1.0" encoding="UTF-8"?><svg id="a" xmlns="http://www.w3.org/2000/svg" viewBox="0 0 1000 310.57"><defs><style>.b{stroke-width:0px;}</style></defs><path class="b" d="m1000,310.57h-39.69v-68.3c-2.03,1.34-3.01,2.47-4.1,2.59-1.52.17-4.12.05-4.51-.78-1.62-3.41-2.23-7.29-3.87-10.68-1.65-3.41-3.63-6.92-6.35-9.42-1.4-1.29-5.53,5.11-6.52,9.55-.67,3.02-2.41,5.85-3.93,8.62-.29.52-1.82.59-2.75.5-3.74-.35-7.45-1.14-11.19-1.21-8.88-.18-8.88-.05-8.88,9.08,0,15-.18,30,.11,45,.09,4.51-1.31,5.65-5.64,5.57-11.07-.2-10.94,0-11.1-11.08-.5-35.32-1.11-70.63-1.68-105.95-.01-.64-.14-1.28-.26-2.29h-20.77c0,6.66-.18,13.12.07,19.56.14,3.56-1.14,4.7-4.59,4.52-4.46-.23-8.95-.06-13.97-.06-.13,2.77-.34,5.19-.34,7.61,0,24.33.02,48.67.03,73q0,6.89-7.13,6.89c-3.67,0-7.35-.16-11,.08-3.66.24-4.94-1.01-4.89-4.81.2-14.66.09-29.33.07-44,0-5.64-2.47-8.06-8.16-8.12-2.83-.03-5.67.05-8.5-.03-4.07-.12-5.49,2.76-7.81,5.52-6.52,7.73-2.83,16.48-3.5,24.72-.61,7.45-.11,14.99-.15,22.49,0,1.57-.19,3.15-.3,4.83-8.26-2.42-12.37-7.57-12.36-14.83.01-12.17,0-24.33,0-36.5,0-3-.21-5.53-4.25-6.05-1.06-.14-2.51-3.01-2.53-4.64-.18-19.16-.11-38.33-.11-57.5,0-1.97,0-3.94,0-6.28h-27.72c0,3.91,0,7.53,0,11.16,0,16.83-.09,33.67.06,50.5.03,3.61-.92,5.15-4.78,4.92-4.98-.3-10.02-.37-14.99.02-4.5.35-6.14-1.29-5.52-5.63.16-1.13.02-2.31.02-3.9-4.5-.03-4.3-2.93-4.68-6.29-.43-3.79.73-8.24-3.19-11.31-.8-.63-.47-2.83-.48-4.3-.03-16.33.11-32.67-.07-49-.1-8.77-.57-17.55-1.16-26.3-.3-4.51-1.22-8.98-1.92-13.45-.09-.6-.42-1.31-.87-1.69-7.61-6.46-7.06-15.44-7.47-24.1-.12-2.46-.02-4.93-.02-7.39-.42-.03-.84-.05-1.25-.08-.23,5.06-.59,10.11-.64,15.17-.06,5.53-1.72,10.22-5.41,14.48-1.53,1.76-2.11,4.61-2.48,7.06-1.11,7.4-1.93,14.84-2.81,22.27-.22,1.81-.37,3.64-.37,5.45-.03,17.67.05,35.33-.07,53-.03,4.04.28,7.68-2.85,11.79-3.39,4.45-4.12,11.11-5.38,16.95-1,4.64-1.04,9.49-1.58,15.04-3.01,0-5.96.21-8.87-.05-4.32-.38-6,1.72-6.24,5.7q-.64,10.45-11.06,10.46c-12.67.01-12.71.01-12.72-12.74-.04-30.67-.04-61.33-.05-92,0-1.96,0-3.93,0-6.25-2.08-.11-3.71-.37-5.31-.25-2.76.2-3.78-.84-3.92-3.69-.2-4.13-3.19-5.62-7.3-4.31-1.46.47-3.13.29-4.85.42-.75,12.85-2.78,25.68-5.05,38.47-.7-.04-1.39-.08-2.09-.12-.33-2.96-.66-5.92-.98-8.83-5.16-.63-7.62.91-8.22,5.36-.58,4.29-1.31,8.64-1.13,12.92.2,4.63-1.29,6.52-5.91,5.79-.8-.13-1.65.07-3.28.16v99.14c-5.26,0-9.72.12-14.17-.1-.95-.05-2.58-1.28-2.64-2.07-.79-9.86-1.35-19.74-1.99-29.93-.7-.05-2.03-.35-3.31-.21-3.95.44-6.6-.33-5.9-5.21.11-.78-.54-2.21-1.2-2.48-4-1.65-3.69-4.94-3.65-8.33.09-8-.09-16,.08-24,.08-4.08-1.43-8.58,2.59-11.95.51-.42-.07-2.14-.15-3.5-1.21-.11-2.19-.36-3.14-.25-3.36.37-3.82-1.3-4.33-4.33-1.12-6.68-3.09-13.21-5.01-21.01,2.01-2.59,2.56-6.67.51-9.07.33-4.89,1.1-8.23.66-11.41-1.46-10.53-3.4-20.98-5-31.49-.17-1.09.57-2.37,1.07-3.48.31-.7,1.46-1.3,1.4-1.85-.76-6.69,4.22-10.06,7.98-14.15.56-.61,1.45-1.15,1.62-1.86.64-2.62,2.38-6.43,1.27-7.73-2.19-2.57-5.88-4.06-9.2-5.33-.83-.32-2.77,1.78-3.94,3.02-.93.99-1.47,2.35-2.97,4.86-1.89-4.52-3.25-7.76-4.59-11.01-.51-1.23-.6-3.15-1.48-3.61-9.94-5.24-4.93-14.44-6.08-22-.33-2.13-.83-5.69-1.93-5.98-3.14-.81-6.85-.96-9.89.02-1.47.48-2.67,4.05-2.7,6.24-.05,3.25,1.29,6.61-3.82,8.59-1.69-4.54-3.6-8.93-4.94-13.47-1.37-4.62-2.51-9.35-3.17-14.12-.6-4.4-.42-8.9-.58-13.36-.06-1.8-.04-3.61-.19-5.41-.05-.63-.86-1.63-.7-1.78,4.92-4.53-.95-9.55.66-14.25.4-1.18-.2-2.71-.4-4.7-3.28,1.56-5.33,2.83-4.36,6.25.21.73.38,1.98-.01,2.31-6.85,5.82-.16,12.17-.48,18.22-.31,5.97,2.18,12.06,3.15,18.15.57,3.58.98,7.28.74,10.88-.22,3.3-1.74,6.51-2.06,9.82-.23,2.36.55,4.83.95,7.25.73,4.41,5.08,7.95,2.95,13.12-.47,1.15-.28,3.37.52,4.12,4.71,4.42,2.81,8.96.69,13.57-1.47,3.2-4.13,6.35.98,9.04.84.44,1.2,3.19.72,4.49-2.85,7.78-4.71,15.52-1.38,23.62.12.3.15.66.13.99-.62,10.02-2.32,20.12-1.54,30.02.65,8.31-2.24,15.49-3.33,23.21-.79,5.57-4.93,2.43-7.39,4.45,0,.92-.53,2.83.09,3.34,3.36,2.74,2.19,6.37,2.23,9.68.12,9.17.07,18.33.02,27.5,0,1.46.13,3.85-.61,4.23-6.29,3.19-3.78,8.86-4.13,13.67-.18,2.49.12,5,0,7.5-.12,2.57,1.26,5.9-3,6.73-.32.06-.67,1.16-.62,1.74.41,4.81-3.04,3.73-5.71,3.79-3.85.08-2.96-2.78-2.96-4.97-.01-21.17.18-42.34-.06-63.5-.1-8.89-1.13-17.77-1.76-27.01h-9.2c-.13,1.09-.29,1.89-.31,2.7-.46,28.26-.89,56.52-1.36,84.78-.05,3.32-.45,6.65-.37,9.97.07,2.79-.88,3.81-3.73,3.84-3.03.03-4.11-1.03-4.1-4.06.04-15.5-.07-31-.15-46.5,0-1.16-.13-2.31-.25-4.3-6.12,0-12.23-.33-18.29.1-4.99.36-6.07-1.52-6.03-6.21.21-27.33.27-54.67-.05-82-.07-5.66-1.97-11.31-3.1-17.4-1.92-.18-4.19-.4-6.2-.6-1.39-3.2-2.49-6.29-4.02-9.14-1.24-2.29-3.52-2.52-4.64-.14-2.22,4.72-4.69,9.57-5.55,14.62-.99,5.74-.27,5.83-5.83,4.59-.92-.21-1.93-.03-3.52-.03,0,4.35,0,8.47,0,12.6.02,46.66.05,93.31,0,139.97,0,2.29,1.5,5.96-3.09,5.84-7.34-.19-8.31-.94-8.3-6,.02-12.5.1-24.99.15-37.49,0-.64.26-1.43-.02-1.9-2.97-4.94-6.02-9.82-9.45-15.38-3.73,8.48-10.16,15.02-9.12,25.27,1.04,10.23.11,20.65.28,30.98.06,3.4-.88,5.1-4.47,4.61-2.89-.4-6.83,1.68-6.86-4.24-.09-19.78-.58-39.56-.93-59.34-.02-1.31-.15-2.61-.22-3.77-.48-.33-.73-.65-1.01-.68-7.15-.65-7-.65-7.36-7.95-.09-1.76-1.54-3.45-2.39-5.16-.14-.28-.61-.57-.56-.76,1.67-6.71-3.06-12.08-3.82-18.33-.94-7.68-2.79-15.25-4.22-22.88-.27-1.45-.61-2.91-.63-4.37-.07-6.33-.39-12.69.03-18.99,1.24-18.39-2.37-36.09-6.96-53.7-.37-1.42-.66-2.86-1.33-5.81-1.6,7.09-2.81,12.79-4.18,18.44-1.35,5.52-2.91,11-4.27,16.52-.35,1.42-.37,2.95-.37,4.44-.03,10.83.44,21.69-.17,32.49-.45,7.91-2.38,15.72-3.5,23.6-.58,4.04-.65,8.16-1.3,12.19-.27,1.68-1.43,3.22-2.24,4.79-.34.66-1.11,1.22-1.19,1.89-.83,7.26-1.9,14.51-2.19,21.8-.16,3.94-1.25,5.4-5.2,5.08-3.43-.28-6.91-.06-11.01-.06,0-6.13,0-11.59,0-17.04,0-9.33.14-18.67-.13-28-.05-1.65-1.8-4.66-2.74-4.65-4.81.05-4.86-2.97-4.72-6.67h-15.64c-.42,8.43-1.16,16.75-1.2,25.08-.15,27.17-.05,54.33-.06,81.5,0,3.69,1.21,7.9-5.39,7.18-5.66-.62-5.7-.13-5.7-7.49,0-10.67.1-21.34-.12-32-.04-1.95-1.44-3.87-2.16-5.83-.33-.9-.65-1.84-.76-2.78-.69-6.04-1.18-12.11-2.05-18.12-.34-2.34-1.42-4.6-2.41-6.79-.08-.17-2.72.19-3.08.87-3.59,6.84-4.69,14.21-4.59,21.91.03,1.91-1.56,3.8-2.19,5.76-.44,1.37-.72,2.86-.72,4.3-.06,11.67-.29,23.34.09,35,.16,5.02-2.21,5.3-6.01,5.13-3.42-.15-6.32.5-6.27-4.89.26-28.83.1-57.67.16-86.5,0-2.91.55-5.81.87-8.92-1.86-.34-3.28-.59-4.03-.73-1.42-5.26-2.59-10.02-4.01-14.72-.9-3-1.79-6.14-6.2-5.68-.6.06-1.89-2.07-2.1-3.31-.77-4.58-1.23-9.21-2.64-13.9-.62,4.66-1.06,9.36-1.99,13.96-.27,1.32-1.9,2.43-3.05,3.48-1.4,1.28-3.73,2.1-4.31,3.63-1.91,5.03-3.22,10.3-5.04,16.41-.29.08-1.81.49-3.79,1.02.3,3.06.86,6.13.87,9.21.07,24.67-.05,49.33.12,74,.03,4.16-1.17,5.44-5.37,5.3-12.37-.43-12.37-.27-12.37-12.85,0-21.33,0-42.67,0-64,0-1.8,0-3.61,0-5.77h-20.12c0,2.13,0,3.93,0,5.73,0,22.67-.08,45.33.09,68,.03,4.04-.98,5.52-5.26,5.48-11.66-.13-11.66.06-11.67-11.46,0-4,.07-8-.02-12-.11-4.84-5.25-11.61-10.21-13.14,0-4.82-.32-9.82.08-14.76.53-6.6-.8-12.6-4.68-17.88-1.18-1.61-3.4-2.42-4.92-3.84-1.02-.95-2.26-2.29-2.33-3.52-.27-4.65-.11-9.33-.11-13.99q0-9.69-5.73-18.58c-2.87,4.39-6.21,8.09-6,13.71.22,6.16.13,12.33-.03,18.5-.03,1.28-.7,3.44-1.49,3.66-8.45,2.27-9.22,9.55-10.17,16.14-.8,5.55-.16,11.31-.16,16.98,0,2.18-.54,3.25-2.87,4.74-4.19,2.68-7.41,7.03-7.42,12.7-.02,15.5-.3,31.01.11,46.49.15,5.65-2.94,4.99-6.53,5.31-4.02.35-5.22-1.14-5.17-5.03.16-13.5.06-27,.06-40.5,0-1.97,0-3.94,0-6.51-6.88,0-13.32,0-19.76,0s-12.66,0-19.78,0c0,1.83,0,3.59,0,5.35,0,15.5-.12,31,.08,46.5.05,4-.89,5.61-5.22,5.47-10.26-.33-20.53-.19-30.8-.23,0-1,0-2,0-3h32.44c.1-2.12.26-3.9.26-5.67.02-16.5-.04-33,.07-49.5.01-1.81.3-4.56,1.43-5.23,1.92-1.13,4.4-.91,5.57,2.17.27.72,2.64.87,4.05.88,7.5.08,15,.09,22.5.01,2.45-.02,5.35,1.03,6.56-2.69.2-.61,3.07-1.09,4.02-.51,1.05.65,1.83,2.58,1.84,3.95.13,15.17.08,30.33.08,45.5,0,1.64,0,3.29,0,4.98,3.7,1.27,5.08.31,5.05-3.44-.12-14.67.12-29.33-.1-44-.11-7.08,4.55-11.38,8.23-16.37.84-1.15,1.84-2.46,1.98-3.78.3-2.8.44-5.71.03-8.48-1.27-8.5,1.93-15.68,6.38-22.45,1.04-1.58,3.02-2.54,5.63-4.64,0-5.43-.91-12.37.28-18.93.99-5.45,4.4-10.49,7.03-15.56.15-.3,3.77.3,4.47,1.35,3.99,5.95,7.5,12.03,6.37,19.86-.68,4.71-.13,9.59-.13,14.26,5,1.64,11.74,11.89,11.95,17.74.05,1.5,0,3,.01,4.5.07,7.64-1.38,15.46,5.95,21.39,4.99,4.03,4.55,10.32,4.34,16.21-.16,4.3-.03,8.62-.03,13.38h10.17c.09-1.81.26-3.72.27-5.63.02-22.33-.2-44.67.13-67,.1-7.06,4.18-12.88,9.21-17.6,3.08-2.89,6.98-1.98,9.24,1.17,3.92,5.45,8.17,10.7,8.08,18.27-.29,22.83-.1,45.67-.1,68.5,0,1.81,0,3.61,0,5.88h10.79c.08-1.4.26-3.14.26-4.88.02-22.5.04-45-.03-67.5-.01-3.64-.44-7.28-.74-10.91-.29-3.49.45-6.05,4.55-5.4,2.44-8.03,1.63-17.47,11.88-21.67,1.28-10.29,2.65-21.21,4.01-32.14.73-.01,1.47-.03,2.2-.04,2.94,10.64,2.48,21.9,4.63,32.12,9.79,4.12,9.36,13.16,11.93,21.43.78.21,2.29.62,3.94,1.07v99.66h5.25c0-1.9,0-3.67,0-5.45,0-11-.12-22,.12-33,.05-2.07,1.62-4.09,2.37-6.17.33-.91.42-1.91.55-2.88.84-6.48,1.54-12.98,2.52-19.44.62-4.07,2.09-6.99,7.39-6.7,5.05.28,5.47,3.66,6.01,7,1.04,6.46.41,13.52,2.8,19.38,5.9,14.43,1.13,29.19,2.97,43.64.18,1.39,1.53,2.63,2.33,3.94.71-1.38,2.02-2.75,2.03-4.13.1-32,0-64,.12-96,.02-4.04.96-8.1,1.82-12.07.17-.79,1.91-1.71,2.95-1.75,5.16-.18,10.33.02,15.5-.12,5.03-.14,2.4,4.14,3.96,6.52,6.41-.19,6.83,3.99,6.7,9.39-.32,13.31-.11,26.63-.11,40.37h9.33c.1-1.41.17-2.86.32-4.31.77-7.26-.53-15.74,2.84-21.47,4.59-7.79.99-16.5,5.66-23.93,2.12-3.37,1.89-8.47,1.99-12.81.25-10.66.47-21.35-.05-31.99-.39-7.92,1.99-15.02,3.83-22.5,2.94-11.98,4.31-24.36,6.19-36.59.45-2.94.14-6,.47-8.97.12-1.09,1.09-2.08,1.66-3.12.62.96,1.7,1.88,1.79,2.89.67,7.11.63,14.32,1.81,21.33,1.56,9.24,4.67,18.24,5.84,27.51.65,5.11,3.02,9.65,2.54,15.31-1.05,12.41-.71,24.99-.15,37.47.26,5.86,2.36,11.62,3.54,17.45.55,2.71.91,5.46,1.28,8.2.39,2.87-1.35,6.45,2.84,8.07.41.16.41,1.52.49,2.34.39,4-.9,7.99,3.09,11.64,1.72,1.58.29,6.61.29,9.69.89.56,1.16.86,1.44.88q7.01.49,7.02,7.57c0,14.83-.08,29.67.05,44.5.04,4.62.43,9.26,1.14,13.82.17,1.11,2.21,1.93,3.39,2.89.39-.32.78-.63,1.17-.95,0-12.63.2-25.26-.12-37.87-.09-3.56-.43-6.13,2.76-9.05,3.02-2.76,4.33-7.39,6.43-11.18.86-1.55,1.8-3.06,3.22-5.46,1.36,2.01,2.24,3.28,3.09,4.56,3.14,4.77,6.48,9.42,9.3,14.37.87,1.53.44,3.86.44,5.82.03,12.48.02,24.97.02,37.6,4.52,1.95,4.42-.97,4.42-4-.02-34.32-.02-68.64-.01-102.96,0-14.5.04-29,.05-43.5,0-6.44-.02-6.43,6.54-6.61.65-.02,1.3-.1,1.02-.08,2.15-5.19,3.68-10.03,6.14-14.34,1.42-2.49,4.29-5.63,6.59-5.7,2.26-.07,4.75,3.25,6.89,5.33.99.97,1.41,2.53,2.25,4.12,1.47-.88,2.67-1.6,4.6-2.75,1.11,2.71,2.6,5.07,3.02,7.6,5.25,31.56,1.29,63.38,2.5,95.07.08,2.15.01,4.31.01,7.31,6.69,0,13.13.22,19.53-.08,4-.19,5.13,1.18,5.1,5.1-.13,13.5.09,27,.17,40.5.01,2.47,0,4.93,0,7.4.49.02.97.04,1.46.06,0-3.28,0-6.56,0-9.84,0-19.83-.13-39.67.08-59.5.1-9.08.74-18.16,1.5-27.21.1-1.18,2.21-2.73,3.67-3.16,3.33-.96,6.83-1.33,11.34-2.13.32,1.63,1.24,4.22,1.29,6.84.6,29.07,1.06,58.14,1.57,87.21.02,1.13.2,2.27.31,3.41,6.84-6.84,5.22-15.4,5.14-23.59-.03-2.97.11-5.45,3.21-7.14,1.04-.57,1.65-2.75,1.67-4.2.15-9.33.23-18.67-.04-28-.06-1.97-1.92-3.82-2.56-5.85-1.93-6.11.16-9.12,7.26-10.42.47-3.74-.92-8.36,3.87-10.7.51-.25.85-2.07.48-2.71-2.47-4.35-.92-8.6-.41-13.05.92-8.08,1.31-16.25,1.34-24.38.01-4.39-1.79-8.8-1.67-13.17.14-5.18,1.45-10.32,2.33-15.95-4.37-3.72-4.61-4.77-1.47-11.28,2.03-4.21,3.72-8.25-.39-12.28-.61-.6-1-1.97-.78-2.78,1.68-6.06-1.8-10.92-3.79-16.02-1.65-4.24-.2-7.78,1.15-11.52.43-1.2,1.29-2.47,1.17-3.62-.95-9-1.86-18.01-3.26-26.95-1.15-7.33-2.98-14.56-4.43-21.47,3.43-4.82,6.67-9.37,10.72-15.06,2.2,3.14,3.98,4.67,4.43,6.51,1.39,5.69,3.56,10.7.91,17.54-2.45,6.33,0,14.57.36,21.96.03.57.47,1.38.96,1.63,3.89,2.01,7.84,3.91,12.25,6.08.61-3.86,1.21-7.66,1.94-12.29,5.69,3.22,1.98,8.87,5.06,12.67,2.38-1.85,4.72-3.84,7.25-5.54.9-.61,2.26-.52,3.42-.75-.22,1.19-.18,2.52-.73,3.52-.77,1.41-1.99,2.57-2.91,3.72,2.61.33,5.03.63,7.46.94-1.35,1.57-2.71,3.14-3.86,4.48,1.78.83,3.83,1.79,5.87,2.75-2.29.82-4.57,1.68-6.88,2.43-.93.3-1.94.37-3.51.66,0,3.92-.07,7.8.05,11.67.03.9.55,1.92,1.13,2.66,2.85,3.64,5.8,7.2,9,11.13.99-.82,2.85-2.34,5.02-4.13,4.29,2.75,8.72,5.37,12.9,8.34,2.8,1.99,2.1,8.63-1.18,12.32-1.53,1.72-3.75,2.92-5.01,4.79-1.76,2.62-3.49,5.5-4.25,8.51-3.43,13.59,2.34,26.49,3.4,39.76.05.66.35,1.33.28,1.96-.58,5.28-1.65,10.56-1.71,15.84-.04,3.84.97,7.75,1.96,11.51.88,3.34,2.38,6.51,2.83,10.06.25.21.46.53.74.61,2.06.64,5.89,1.16,5.92,1.84.13,3.4-.7,6.84-1.29,10.25-.21,1.21-1,2.38-1.01,3.57-.08,9.5-.1,19,.03,28.5.02,1.31.78,2.73,1.52,3.89,1.38,2.16,2.99,4.17,4.51,6.24-.29.49-.58.98-.86,1.48,2.09,0,4.19.19,6.25-.04,4.51-.51,4.86,1.97,4.46,5.49-.52,4.53-1.08,9.1-1.02,13.64.06,4.25.9,8.48,1.44,13.06h9.88c0-2.22,0-4.32,0-6.42,0-28.5.02-57,.03-85.5q0-6.89,6.78-7.26c.63-.04,1.26-.24,2-.39.61-5.58,1.15-11.02,1.81-16.46.57-4.63,2.78-7.08,7.88-7.92,2.37-.39,5.59-4.07,5.96-6.61,1.29-9.03,1.42-18.21,2.22-27.32.14-1.61,1.39-3.13,2.12-4.69.65,1.47,1.26,2.95,1.95,4.41.61,1.31,1.3,2.58,1.95,3.87.63-.89,1.11-1.99,1.94-2.63,1.22-.95,2.7-1.59,3.65-2.12,3.1,4.89,5.68,8.97,8.58,13.54q7.7.96,7.7,10.12c-.01,31.83-.03,63.67-.04,95.5,0,1.8,0,3.61,0,5.77h17.33c0-2.84-.03-5.61,0-8.38.07-5.96,1.48-7.39,7.24-7.42,1.67,0,3.45.35,4.97-.13,1.29-.4,3.1-1.63,3.28-2.73,1.05-6.49,1.26-13.13,2.62-19.54.81-3.83,3.23-7.31,4.88-10.97.73-1.62,1.87-3.3,1.89-4.96.15-14.67-.05-29.33.14-44,.14-10.28-.54-20.82,1.54-30.74,1.45-6.92-1.18-16.01,7.22-20.71.97-5.84,2.29-11.65,2.83-17.53.73-7.9.75-15.86,1.35-23.78.09-1.16,1.69-2.22,2.58-3.32.91,1.1,2.54,2.14,2.63,3.31.78,10.06,1.3,20.15,1.88,30.23.3,5.28.65,10.38,5.46,14.08,1.43,1.1,2.14,3.62,2.45,5.61,4.59,29.13,2.8,58.5,3.31,87.79.06,3.43,1.97,6.8,2.83,10.25.47,1.91.52,3.93.8,5.89.14.97.24,2.72.56,2.76,6.81.98,2.84,6.64,4.64,10.25h17.9c0-2.97,0-5.76,0-8.55,0-17.5-.01-35,0-52.5,0-5.63.96-6.58,6.75-6.61,7-.05,14-.05,21,0,5.77.04,6.72,1,6.72,6.64.01,20.32,0,40.65,0,60.98,3.84-.24,6.88,3.65,6.9,8.87.05,13.17.19,26.34-.11,39.5-.1,4.54,1.67,7.07,6.26,9.03,0-6.22,0-11.97,0-17.72,0-6.17.52-12.39-.15-18.48-.65-5.87,1.81-10.16,5.14-14.26,2.56-3.15,5.55-5.58,10.21-4.94,3.11.43,6.32.04,9.49.09,5.65.1,9.84,4.36,9.85,10.07.02,13.5,0,27,0,40.5,0,1.81,0,3.61,0,5.81h16.52c0-1.88,0-3.79,0-5.7.01-25.17.11-50.33-.04-75.5-.02-4.1.66-5.87,5.36-5.96,2.75-.05,5.51-2.54,8.15-4.12.95-.57,1.57-1.68,2.33-2.55.57,1.2,1.23,2.36,1.68,3.61.25.7.16,1.52,1.29,2.26,0-6.2.19-12.4-.07-18.58-.15-3.71,1.04-5.02,4.81-4.84,5.82.28,11.67.29,17.49-.01,4.27-.23,5.22,1.46,5.27,5.48.45,36.98,1.1,73.96,1.71,110.93.01.81.11,1.63.19,2.8h9.95c0-1.81,0-3.58,0-5.36,0-15.83-.02-31.67,0-47.5,0-5.48,1.21-6.63,6.73-6.69,3.98-.04,7.96-.14,11.94-.08,4.68.07,7.7-1.78,8.51-6.66.21-1.29.58-2.82,1.44-3.67,2.47-2.44,5.22-6.36,7.86-6.36,2.64,0,5.74,3.68,7.81,6.38,2.56,3.35,4.27,7.35,5.48,11.61.27.17.53.47.81.48q8.12.44,8.1,8.56c0,18,0,36,0,54,0,1.63,0,3.26,0,5.5h36.29v3ZM162.8,188.77c.39.39.78.78,1.18,1.17h12.38c.27-.49.54-.98.82-1.46-2.45-2.1-4.92-5.86-7.33-5.82-2.38.04-4.7,3.92-7.04,6.12Z"/></svg>