<?xml version="1.0" encoding="utf-8" ?>
<svg baseProfile="full" height="212" version="1.1" width="283" xmlns="http://www.w3.org/2000/svg" xmlns:ev="http://www.w3.org/2001/xml-events" xmlns:xlink="http://www.w3.org/1999/xlink"><defs /><rect fill="black" height="1" width="22" x="0" y="0" /><rect fill="black" height="1" width="113" x="27" y="0" /><rect fill="black" height="1" width="1" x="251" y="0" /><rect fill="black" height="1" width="2" x="255" y="0" /><rect fill="black" height="1" width="24" x="259" y="0" /><rect fill="black" height="1" width="22" x="0" y="1" /><rect fill="black" height="1" width="127" x="28" y="1" /><rect fill="black" height="1" width="20" x="263" y="1" /><rect fill="black" height="1" width="24" x="0" y="2" /><rect fill="black" height="1" width="140" x="28" y="2" /><rect fill="black" height="1" width="4" x="169" y="2" /><rect fill="black" height="1" width="7" x="276" y="2" /><rect fill="black" height="1" width="185" x="0" y="3" /><rect fill="black" height="1" width="3" x="188" y="3" /><rect fill="black" height="1" width="206" x="0" y="4" /><rect fill="black" height="1" width="22" x="0" y="5" /><rect fill="black" height="1" width="192" x="26" y="5" /><rect fill="black" height="1" width="22" x="0" y="6" /><rect fill="black" height="1" width="193" x="26" y="6" /><rect fill="black" height="1" width="22" x="0" y="7" /><rect fill="black" height="1" width="194" x="24" y="7" /><rect fill="black" height="1" width="16" x="235" y="7" /><rect fill="black" height="1" width="22" x="0" y="8" /><rect fill="black" height="1" width="194" x="24" y="8" /><rect fill="black" height="1" width="35" x="234" y="8" /><rect fill="black" height="1" width="22" x="0" y="9" /><rect fill="black" height="1" width="193" x="24" y="9" /><rect fill="black" height="1" width="49" x="234" y="9" /><rect fill="black" height="1" width="216" x="0" y="10" /><rect fill="black" height="1" width="50" x="233" y="10" /><rect fill="black" height="1" width="216" x="0" y="11" /><rect fill="black" height="1" width="51" x="232" y="11" /><rect fill="black" height="1" width="215" x="0" y="12" /><rect fill="black" height="1" width="52" x="231" y="12" /><rect fill="black" height="1" width="215" x="0" y="13" /><rect fill="black" height="1" width="52" x="231" y="13" /><rect fill="black" height="1" width="214" x="0" y="14" /><rect fill="black" height="1" width="52" x="231" y="14" /><rect fill="black" height="1" width="214" x="0" y="15" /><rect fill="black" height="1" width="53" x="230" y="15" /><rect fill="black" height="1" width="22" x="0" y="16" /><rect fill="black" height="1" width="190" x="23" y="16" /><rect fill="black" height="1" width="53" x="230" y="16" /><rect fill="black" height="1" width="21" x="0" y="17" /><rect fill="black" height="1" width="190" x="22" y="17" /><rect fill="black" height="1" width="54" x="229" y="17" /><rect fill="black" height="1" width="21" x="0" y="18" /><rect fill="black" height="1" width="190" x="22" y="18" /><rect fill="black" height="1" width="54" x="229" y="18" /><rect fill="black" height="1" width="21" x="0" y="19" /><rect fill="black" height="1" width="189" x="22" y="19" /><rect fill="black" height="1" width="55" x="228" y="19" /><rect fill="black" height="1" width="211" x="0" y="20" /><rect fill="black" height="1" width="56" x="227" y="20" /><rect fill="black" height="1" width="210" x="0" y="21" /><rect fill="black" height="1" width="56" x="227" y="21" /><rect fill="black" height="1" width="209" x="0" y="22" /><rect fill="black" height="1" width="57" x="226" y="22" /><rect fill="black" height="1" width="209" x="0" y="23" /><rect fill="black" height="1" width="58" x="225" y="23" /><rect fill="black" height="1" width="209" x="0" y="24" /><rect fill="black" height="1" width="59" x="224" y="24" /><rect fill="black" height="1" width="209" x="0" y="25" /><rect fill="black" height="1" width="59" x="224" y="25" /><rect fill="black" height="1" width="209" x="0" y="26" /><rect fill="black" height="1" width="60" x="223" y="26" /><rect fill="black" height="1" width="208" x="0" y="27" /><rect fill="black" height="1" width="60" x="223" y="27" /><rect fill="black" height="1" width="208" x="0" y="28" /><rect fill="black" height="1" width="60" x="223" y="28" /><rect fill="black" height="1" width="208" x="0" y="29" /><rect fill="black" height="1" width="61" x="222" y="29" /><rect fill="black" height="1" width="207" x="0" y="30" /><rect fill="black" height="1" width="61" x="222" y="30" /><rect fill="black" height="1" width="206" x="0" y="31" /><rect fill="black" height="1" width="62" x="221" y="31" /><rect fill="black" height="1" width="206" x="0" y="32" /><rect fill="black" height="1" width="63" x="220" y="32" /><rect fill="black" height="1" width="32" x="0" y="33" /><rect fill="black" height="1" width="172" x="33" y="33" /><rect fill="black" height="1" width="63" x="220" y="33" /><rect fill="black" height="1" width="29" x="0" y="34" /><rect fill="black" height="1" width="172" x="33" y="34" /><rect fill="black" height="1" width="64" x="219" y="34" /><rect fill="black" height="1" width="29" x="0" y="35" /><rect fill="black" height="1" width="171" x="33" y="35" /><rect fill="black" height="1" width="64" x="219" y="35" /><rect fill="black" height="1" width="28" x="0" y="36" /><rect fill="black" height="1" width="169" x="34" y="36" /><rect fill="black" height="1" width="65" x="218" y="36" /><rect fill="black" height="1" width="28" x="0" y="37" /><rect fill="black" height="1" width="168" x="35" y="37" /><rect fill="black" height="1" width="66" x="217" y="37" /><rect fill="black" height="1" width="28" x="0" y="38" /><rect fill="black" height="1" width="167" x="35" y="38" /><rect fill="black" height="1" width="66" x="217" y="38" /><rect fill="black" height="1" width="29" x="0" y="39" /><rect fill="black" height="1" width="167" x="34" y="39" /><rect fill="black" height="1" width="67" x="216" y="39" /><rect fill="black" height="1" width="31" x="0" y="40" /><rect fill="black" height="1" width="167" x="34" y="40" /><rect fill="black" height="1" width="67" x="216" y="40" /><rect fill="black" height="1" width="32" x="0" y="41" /><rect fill="black" height="1" width="165" x="35" y="41" /><rect fill="black" height="1" width="68" x="215" y="41" /><rect fill="black" height="1" width="33" x="0" y="42" /><rect fill="black" height="1" width="164" x="36" y="42" /><rect fill="black" height="1" width="69" x="214" y="42" /><rect fill="black" height="1" width="33" x="0" y="43" /><rect fill="black" height="1" width="163" x="36" y="43" /><rect fill="black" height="1" width="69" x="214" y="43" /><rect fill="black" height="1" width="32" x="0" y="44" /><rect fill="black" height="1" width="163" x="35" y="44" /><rect fill="black" height="1" width="70" x="213" y="44" /><rect fill="black" height="1" width="32" x="0" y="45" /><rect fill="black" height="1" width="165" x="33" y="45" /><rect fill="black" height="1" width="70" x="213" y="45" /><rect fill="black" height="1" width="197" x="0" y="46" /><rect fill="black" height="1" width="71" x="212" y="46" /><rect fill="black" height="1" width="20" x="0" y="47" /><rect fill="black" height="1" width="175" x="21" y="47" /><rect fill="black" height="1" width="71" x="212" y="47" /><rect fill="black" height="1" width="21" x="0" y="48" /><rect fill="black" height="1" width="173" x="22" y="48" /><rect fill="black" height="1" width="72" x="211" y="48" /><rect fill="black" height="1" width="21" x="0" y="49" /><rect fill="black" height="1" width="4" x="22" y="49" /><rect fill="black" height="1" width="167" x="27" y="49" /><rect fill="black" height="1" width="72" x="211" y="49" /><rect fill="black" height="1" width="20" x="0" y="50" /><rect fill="black" height="1" width="171" x="22" y="50" /><rect fill="black" height="1" width="73" x="210" y="50" /><rect fill="black" height="1" width="21" x="0" y="51" /><rect fill="black" height="1" width="170" x="22" y="51" /><rect fill="black" height="1" width="74" x="209" y="51" /><rect fill="black" height="1" width="21" x="0" y="52" /><rect fill="black" height="1" width="169" x="22" y="52" /><rect fill="black" height="1" width="74" x="209" y="52" /><rect fill="black" height="1" width="26" x="0" y="53" /><rect fill="black" height="1" width="164" x="27" y="53" /><rect fill="black" height="1" width="75" x="208" y="53" /><rect fill="black" height="1" width="26" x="0" y="54" /><rect fill="black" height="1" width="6" x="27" y="54" /><rect fill="black" height="1" width="156" x="35" y="54" /><rect fill="black" height="1" width="76" x="207" y="54" /><rect fill="black" height="1" width="25" x="0" y="55" /><rect fill="black" height="1" width="3" x="30" y="55" /><rect fill="black" height="1" width="155" x="35" y="55" /><rect fill="black" height="1" width="76" x="207" y="55" /><rect fill="black" height="1" width="24" x="0" y="56" /><rect fill="black" height="1" width="158" x="31" y="56" /><rect fill="black" height="1" width="77" x="206" y="56" /><rect fill="black" height="1" width="18" x="0" y="57" /><rect fill="black" height="1" width="3" x="20" y="57" /><rect fill="black" height="1" width="1" x="24" y="57" /><rect fill="black" height="1" width="158" x="31" y="57" /><rect fill="black" height="1" width="77" x="206" y="57" /><rect fill="black" height="1" width="22" x="0" y="58" /><rect fill="black" height="1" width="1" x="29" y="58" /><rect fill="black" height="1" width="157" x="31" y="58" /><rect fill="black" height="1" width="78" x="205" y="58" /><rect fill="black" height="1" width="23" x="0" y="59" /><rect fill="black" height="1" width="1" x="29" y="59" /><rect fill="black" height="1" width="155" x="33" y="59" /><rect fill="black" height="1" width="79" x="204" y="59" /><rect fill="black" height="1" width="23" x="0" y="60" /><rect fill="black" height="1" width="153" x="34" y="60" /><rect fill="black" height="1" width="79" x="204" y="60" /><rect fill="black" height="1" width="24" x="0" y="61" /><rect fill="black" height="1" width="152" x="34" y="61" /><rect fill="black" height="1" width="79" x="204" y="61" /><rect fill="black" height="1" width="24" x="0" y="62" /><rect fill="black" height="1" width="150" x="35" y="62" /><rect fill="black" height="1" width="80" x="203" y="62" /><rect fill="black" height="1" width="19" x="0" y="63" /><rect fill="black" height="1" width="3" x="20" y="63" /><rect fill="black" height="1" width="1" x="24" y="63" /><rect fill="black" height="1" width="1" x="32" y="63" /><rect fill="black" height="1" width="149" x="36" y="63" /><rect fill="black" height="1" width="81" x="202" y="63" /><rect fill="black" height="1" width="19" x="0" y="64" /><rect fill="black" height="1" width="2" x="21" y="64" /><rect fill="black" height="1" width="1" x="24" y="64" /><rect fill="black" height="1" width="148" x="36" y="64" /><rect fill="black" height="1" width="81" x="202" y="64" /><rect fill="black" height="1" width="19" x="0" y="65" /><rect fill="black" height="1" width="3" x="21" y="65" /><rect fill="black" height="1" width="1" x="33" y="65" /><rect fill="black" height="1" width="149" x="35" y="65" /><rect fill="black" height="1" width="81" x="202" y="65" /><rect fill="black" height="1" width="21" x="0" y="66" /><rect fill="black" height="1" width="151" x="32" y="66" /><rect fill="black" height="1" width="82" x="201" y="66" /><rect fill="black" height="1" width="21" x="0" y="67" /><rect fill="black" height="1" width="150" x="32" y="67" /><rect fill="black" height="1" width="82" x="201" y="67" /><rect fill="black" height="1" width="21" x="0" y="68" /><rect fill="black" height="1" width="150" x="31" y="68" /><rect fill="black" height="1" width="83" x="200" y="68" /><rect fill="black" height="1" width="21" x="0" y="69" /><rect fill="black" height="1" width="149" x="32" y="69" /><rect fill="black" height="1" width="83" x="200" y="69" /><rect fill="black" height="1" width="22" x="0" y="70" /><rect fill="black" height="1" width="147" x="33" y="70" /><rect fill="black" height="1" width="84" x="199" y="70" /><rect fill="black" height="1" width="25" x="0" y="71" /><rect fill="black" height="1" width="146" x="33" y="71" /><rect fill="black" height="1" width="85" x="198" y="71" /><rect fill="black" height="1" width="26" x="0" y="72" /><rect fill="black" height="1" width="146" x="33" y="72" /><rect fill="black" height="1" width="85" x="198" y="72" /><rect fill="black" height="1" width="7" x="0" y="73" /><rect fill="black" height="1" width="13" x="13" y="73" /><rect fill="black" height="1" width="146" x="32" y="73" /><rect fill="black" height="1" width="85" x="198" y="73" /><rect fill="black" height="1" width="6" x="0" y="74" /><rect fill="black" height="1" width="13" x="13" y="74" /><rect fill="black" height="1" width="1" x="28" y="74" /><rect fill="black" height="1" width="144" x="32" y="74" /><rect fill="black" height="1" width="1" x="177" y="74" /><rect fill="black" height="1" width="86" x="197" y="74" /><rect fill="black" height="1" width="5" x="0" y="75" /><rect fill="black" height="1" width="14" x="13" y="75" /><rect fill="black" height="1" width="1" x="28" y="75" /><rect fill="black" height="1" width="144" x="32" y="75" /><rect fill="black" height="1" width="87" x="196" y="75" /><rect fill="black" height="1" width="4" x="0" y="76" /><rect fill="black" height="1" width="14" x="13" y="76" /><rect fill="black" height="1" width="20" x="31" y="76" /><rect fill="black" height="1" width="47" x="52" y="76" /><rect fill="black" height="1" width="74" x="101" y="76" /><rect fill="black" height="1" width="88" x="195" y="76" /><rect fill="black" height="1" width="9" x="0" y="77" /><rect fill="black" height="1" width="14" x="13" y="77" /><rect fill="black" height="1" width="1" x="29" y="77" /><rect fill="black" height="1" width="20" x="31" y="77" /><rect fill="black" height="1" width="34" x="64" y="77" /><rect fill="black" height="1" width="74" x="101" y="77" /><rect fill="black" height="1" width="89" x="194" y="77" /><rect fill="black" height="1" width="27" x="0" y="78" /><rect fill="black" height="1" width="23" x="28" y="78" /><rect fill="black" height="1" width="25" x="73" y="78" /><rect fill="black" height="1" width="18" x="102" y="78" /><rect fill="black" height="1" width="52" x="123" y="78" /><rect fill="black" height="1" width="89" x="194" y="78" /><rect fill="black" height="1" width="24" x="0" y="79" /><rect fill="black" height="1" width="2" x="25" y="79" /><rect fill="black" height="1" width="4" x="28" y="79" /><rect fill="black" height="1" width="18" x="33" y="79" /><rect fill="black" height="1" width="12" x="86" y="79" /><rect fill="black" height="1" width="19" x="101" y="79" /><rect fill="black" height="1" width="49" x="125" y="79" /><rect fill="black" height="1" width="89" x="194" y="79" /><rect fill="black" height="1" width="29" x="0" y="80" /><rect fill="black" height="1" width="20" x="32" y="80" /><rect fill="black" height="1" width="6" x="92" y="80" /><rect fill="black" height="1" width="19" x="102" y="80" /><rect fill="black" height="1" width="4" x="131" y="80" /><rect fill="black" height="1" width="2" x="137" y="80" /><rect fill="black" height="1" width="5" x="141" y="80" /><rect fill="black" height="1" width="2" x="148" y="80" /><rect fill="black" height="1" width="21" x="151" y="80" /><rect fill="black" height="1" width="90" x="193" y="80" /><rect fill="black" height="1" width="64" x="0" y="81" /><rect fill="black" height="1" width="5" x="93" y="81" /><rect fill="black" height="1" width="19" x="102" y="81" /><rect fill="black" height="1" width="1" x="143" y="81" /><rect fill="black" height="1" width="2" x="147" y="81" /><rect fill="black" height="1" width="1" x="151" y="81" /><rect fill="black" height="1" width="20" x="154" y="81" /><rect fill="black" height="1" width="90" x="193" y="81" /><rect fill="black" height="1" width="69" x="0" y="82" /><rect fill="black" height="1" width="1" x="72" y="82" /><rect fill="black" height="1" width="1" x="90" y="82" /><rect fill="black" height="1" width="6" x="93" y="82" /><rect fill="black" height="1" width="19" x="103" y="82" /><rect fill="black" height="1" width="4" x="159" y="82" /><rect fill="black" height="1" width="6" x="164" y="82" /><rect fill="black" height="1" width="90" x="193" y="82" /><rect fill="black" height="1" width="27" x="0" y="83" /><rect fill="black" height="1" width="47" x="30" y="83" /><rect fill="black" height="1" width="4" x="79" y="83" /><rect fill="black" height="1" width="1" x="90" y="83" /><rect fill="black" height="1" width="6" x="93" y="83" /><rect fill="black" height="1" width="19" x="104" y="83" /><rect fill="black" height="1" width="1" x="162" y="83" /><rect fill="black" height="1" width="1" x="166" y="83" /><rect fill="black" height="1" width="1" x="169" y="83" /><rect fill="black" height="1" width="1" x="191" y="83" /><rect fill="black" height="1" width="90" x="193" y="83" /><rect fill="black" height="1" width="26" x="0" y="84" /><rect fill="black" height="1" width="56" x="32" y="84" /><rect fill="black" height="1" width="11" x="89" y="84" /><rect fill="black" height="1" width="20" x="104" y="84" /><rect fill="black" height="1" width="1" x="191" y="84" /><rect fill="black" height="1" width="90" x="193" y="84" /><rect fill="black" height="1" width="100" x="0" y="85" /><rect fill="black" height="1" width="24" x="101" y="85" /><rect fill="black" height="1" width="1" x="193" y="85" /><rect fill="black" height="1" width="2" x="195" y="85" /><rect fill="black" height="1" width="85" x="198" y="85" /><rect fill="black" height="1" width="125" x="0" y="86" /><rect fill="black" height="1" width="4" x="203" y="86" /><rect fill="black" height="1" width="74" x="209" y="86" /><rect fill="black" height="1" width="125" x="0" y="87" /><rect fill="black" height="1" width="2" x="209" y="87" /><rect fill="black" height="1" width="3" x="212" y="87" /><rect fill="black" height="1" width="67" x="216" y="87" /><rect fill="black" height="1" width="27" x="0" y="88" /><rect fill="black" height="1" width="72" x="28" y="88" /><rect fill="black" height="1" width="23" x="103" y="88" /><rect fill="black" height="1" width="2" x="220" y="88" /><rect fill="black" height="1" width="2" x="226" y="88" /><rect fill="black" height="1" width="53" x="230" y="88" /><rect fill="black" height="1" width="27" x="0" y="89" /><rect fill="black" height="1" width="88" x="28" y="89" /><rect fill="black" height="1" width="9" x="118" y="89" /><rect fill="black" height="1" width="2" x="240" y="89" /><rect fill="black" height="1" width="40" x="243" y="89" /><rect fill="black" height="1" width="100" x="0" y="90" /><rect fill="black" height="1" width="15" x="101" y="90" /><rect fill="black" height="1" width="19" x="118" y="90" /><rect fill="black" height="1" width="1" x="244" y="90" /><rect fill="black" height="1" width="1" x="248" y="90" /><rect fill="black" height="1" width="4" x="252" y="90" /><rect fill="black" height="1" width="26" x="257" y="90" /><rect fill="black" height="1" width="100" x="0" y="91" /><rect fill="black" height="1" width="16" x="101" y="91" /><rect fill="black" height="1" width="34" x="119" y="91" /><rect fill="black" height="1" width="6" x="262" y="91" /><rect fill="black" height="1" width="14" x="269" y="91" /><rect fill="black" height="1" width="99" x="0" y="92" /><rect fill="black" height="1" width="15" x="102" y="92" /><rect fill="black" height="1" width="5" x="120" y="92" /><rect fill="black" height="1" width="34" x="127" y="92" /><rect fill="black" height="1" width="1" x="270" y="92" /><rect fill="black" height="1" width="1" x="272" y="92" /><rect fill="black" height="1" width="8" x="275" y="92" /><rect fill="black" height="1" width="98" x="0" y="93" /><rect fill="black" height="1" width="16" x="102" y="93" /><rect fill="black" height="1" width="6" x="119" y="93" /><rect fill="black" height="1" width="35" x="128" y="93" /><rect fill="black" height="1" width="98" x="0" y="94" /><rect fill="black" height="1" width="18" x="102" y="94" /><rect fill="black" height="1" width="5" x="121" y="94" /><rect fill="black" height="1" width="36" x="128" y="94" /><rect fill="black" height="1" width="14" x="185" y="94" /><rect fill="black" height="1" width="98" x="0" y="95" /><rect fill="black" height="1" width="10" x="101" y="95" /><rect fill="black" height="1" width="5" x="114" y="95" /><rect fill="black" height="1" width="5" x="122" y="95" /><rect fill="black" height="1" width="34" x="130" y="95" /><rect fill="black" height="1" width="32" x="184" y="95" /><rect fill="black" height="1" width="99" x="0" y="96" /><rect fill="black" height="1" width="8" x="102" y="96" /><rect fill="black" height="1" width="2" x="118" y="96" /><rect fill="black" height="1" width="3" x="124" y="96" /><rect fill="black" height="1" width="33" x="131" y="96" /><rect fill="black" height="1" width="41" x="184" y="96" /><rect fill="black" height="1" width="108" x="0" y="97" /><rect fill="black" height="1" width="1" x="115" y="97" /><rect fill="black" height="1" width="3" x="125" y="97" /><rect fill="black" height="1" width="32" x="132" y="97" /><rect fill="black" height="1" width="56" x="183" y="97" /><rect fill="black" height="1" width="32" x="0" y="98" /><rect fill="black" height="1" width="74" x="33" y="98" /><rect fill="black" height="1" width="10" x="109" y="98" /><rect fill="black" height="1" width="4" x="125" y="98" /><rect fill="black" height="1" width="32" x="132" y="98" /><rect fill="black" height="1" width="68" x="183" y="98" /><rect fill="black" height="1" width="121" x="0" y="99" /><rect fill="black" height="1" width="4" x="126" y="99" /><rect fill="black" height="1" width="29" x="133" y="99" /><rect fill="black" height="1" width="79" x="182" y="99" /><rect fill="black" height="1" width="2" x="264" y="99" /><rect fill="black" height="1" width="122" x="0" y="100" /><rect fill="black" height="1" width="6" x="126" y="100" /><rect fill="black" height="1" width="5" x="136" y="100" /><rect fill="black" height="1" width="17" x="145" y="100" /><rect fill="black" height="1" width="92" x="182" y="100" /><rect fill="black" height="1" width="123" x="0" y="101" /><rect fill="black" height="1" width="7" x="126" y="101" /><rect fill="black" height="1" width="3" x="138" y="101" /><rect fill="black" height="1" width="14" x="146" y="101" /><rect fill="black" height="1" width="98" x="181" y="101" /><rect fill="black" height="1" width="2" x="280" y="101" /><rect fill="black" height="1" width="124" x="0" y="102" /><rect fill="black" height="1" width="9" x="126" y="102" /><rect fill="black" height="1" width="2" x="140" y="102" /><rect fill="black" height="1" width="15" x="145" y="102" /><rect fill="black" height="1" width="103" x="180" y="102" /><rect fill="black" height="1" width="125" x="0" y="103" /><rect fill="black" height="1" width="9" x="127" y="103" /><rect fill="black" height="1" width="19" x="141" y="103" /><rect fill="black" height="1" width="103" x="180" y="103" /><rect fill="black" height="1" width="125" x="0" y="104" /><rect fill="black" height="1" width="6" x="130" y="104" /><rect fill="black" height="1" width="1" x="142" y="104" /><rect fill="black" height="1" width="2" x="144" y="104" /><rect fill="black" height="1" width="9" x="150" y="104" /><rect fill="black" height="1" width="104" x="179" y="104" /><rect fill="black" height="1" width="92" x="0" y="105" /><rect fill="black" height="1" width="31" x="96" y="105" /><rect fill="black" height="1" width="5" x="133" y="105" /><rect fill="black" height="1" width="8" x="151" y="105" /><rect fill="black" height="1" width="104" x="179" y="105" /><rect fill="black" height="1" width="91" x="0" y="106" /><rect fill="black" height="1" width="31" x="97" y="106" /><rect fill="black" height="1" width="7" x="134" y="106" /><rect fill="black" height="1" width="9" x="150" y="106" /><rect fill="black" height="1" width="105" x="178" y="106" /><rect fill="black" height="1" width="91" x="0" y="107" /><rect fill="black" height="1" width="32" x="98" y="107" /><rect fill="black" height="1" width="8" x="134" y="107" /><rect fill="black" height="1" width="7" x="149" y="107" /><rect fill="black" height="1" width="2" x="157" y="107" /><rect fill="black" height="1" width="106" x="177" y="107" /><rect fill="black" height="1" width="92" x="0" y="108" /><rect fill="black" height="1" width="31" x="100" y="108" /><rect fill="black" height="1" width="2" x="138" y="108" /><rect fill="black" height="1" width="12" x="143" y="108" /><rect fill="black" height="1" width="106" x="177" y="108" /><rect fill="black" height="1" width="132" x="0" y="109" /><rect fill="black" height="1" width="12" x="144" y="109" /><rect fill="black" height="1" width="105" x="178" y="109" /><rect fill="black" height="1" width="135" x="0" y="110" /><rect fill="black" height="1" width="1" x="144" y="110" /><rect fill="black" height="1" width="10" x="147" y="110" /><rect fill="black" height="1" width="1" x="177" y="110" /><rect fill="black" height="1" width="103" x="180" y="110" /><rect fill="black" height="1" width="136" x="0" y="111" /><rect fill="black" height="1" width="2" x="144" y="111" /><rect fill="black" height="1" width="10" x="147" y="111" /><rect fill="black" height="1" width="107" x="176" y="111" /><rect fill="black" height="1" width="154" x="0" y="112" /><rect fill="black" height="1" width="108" x="175" y="112" /><rect fill="black" height="1" width="155" x="0" y="113" /><rect fill="black" height="1" width="108" x="175" y="113" /><rect fill="black" height="1" width="155" x="0" y="114" /><rect fill="black" height="1" width="109" x="174" y="114" /><rect fill="black" height="1" width="154" x="0" y="115" /><rect fill="black" height="1" width="109" x="174" y="115" /><rect fill="black" height="1" width="152" x="0" y="116" /><rect fill="black" height="1" width="111" x="172" y="116" /><rect fill="black" height="1" width="32" x="0" y="117" /><rect fill="black" height="1" width="120" x="33" y="117" /><rect fill="black" height="1" width="111" x="172" y="117" /><rect fill="black" height="1" width="152" x="0" y="118" /><rect fill="black" height="1" width="112" x="171" y="118" /><rect fill="black" height="1" width="152" x="0" y="119" /><rect fill="black" height="1" width="113" x="170" y="119" /><rect fill="black" height="1" width="151" x="0" y="120" /><rect fill="black" height="1" width="114" x="169" y="120" /><rect fill="black" height="1" width="151" x="0" y="121" /><rect fill="black" height="1" width="114" x="169" y="121" /><rect fill="black" height="1" width="150" x="0" y="122" /><rect fill="black" height="1" width="115" x="168" y="122" /><rect fill="black" height="1" width="150" x="0" y="123" /><rect fill="black" height="1" width="115" x="168" y="123" /><rect fill="black" height="1" width="149" x="0" y="124" /><rect fill="black" height="1" width="115" x="168" y="124" /><rect fill="black" height="1" width="31" x="0" y="125" /><rect fill="black" height="1" width="115" x="33" y="125" /><rect fill="black" height="1" width="115" x="168" y="125" /><rect fill="black" height="1" width="32" x="0" y="126" /><rect fill="black" height="1" width="115" x="33" y="126" /><rect fill="black" height="1" width="116" x="167" y="126" /><rect fill="black" height="1" width="32" x="0" y="127" /><rect fill="black" height="1" width="114" x="33" y="127" /><rect fill="black" height="1" width="117" x="166" y="127" /><rect fill="black" height="1" width="36" x="0" y="128" /><rect fill="black" height="1" width="110" x="37" y="128" /><rect fill="black" height="1" width="118" x="165" y="128" /><rect fill="black" height="1" width="34" x="0" y="129" /><rect fill="black" height="1" width="108" x="38" y="129" /><rect fill="black" height="1" width="118" x="165" y="129" /><rect fill="black" height="1" width="33" x="0" y="130" /><rect fill="black" height="1" width="108" x="38" y="130" /><rect fill="black" height="1" width="119" x="164" y="130" /><rect fill="black" height="1" width="34" x="0" y="131" /><rect fill="black" height="1" width="2" x="35" y="131" /><rect fill="black" height="1" width="107" x="38" y="131" /><rect fill="black" height="1" width="120" x="163" y="131" /><rect fill="black" height="1" width="34" x="0" y="132" /><rect fill="black" height="1" width="2" x="35" y="132" /><rect fill="black" height="1" width="6" x="38" y="132" /><rect fill="black" height="1" width="98" x="46" y="132" /><rect fill="black" height="1" width="120" x="163" y="132" /><rect fill="black" height="1" width="35" x="0" y="133" /><rect fill="black" height="1" width="4" x="41" y="133" /><rect fill="black" height="1" width="98" x="46" y="133" /><rect fill="black" height="1" width="121" x="162" y="133" /><rect fill="black" height="1" width="35" x="0" y="134" /><rect fill="black" height="1" width="4" x="41" y="134" /><rect fill="black" height="1" width="97" x="46" y="134" /><rect fill="black" height="1" width="121" x="162" y="134" /><rect fill="black" height="1" width="37" x="0" y="135" /><rect fill="black" height="1" width="95" x="48" y="135" /><rect fill="black" height="1" width="121" x="162" y="135" /><rect fill="black" height="1" width="36" x="0" y="136" /><rect fill="black" height="1" width="2" x="37" y="136" /><rect fill="black" height="1" width="96" x="46" y="136" /><rect fill="black" height="1" width="122" x="161" y="136" /><rect fill="black" height="1" width="36" x="0" y="137" /><rect fill="black" height="1" width="94" x="47" y="137" /><rect fill="black" height="1" width="122" x="161" y="137" /><rect fill="black" height="1" width="37" x="0" y="138" /><rect fill="black" height="1" width="94" x="47" y="138" /><rect fill="black" height="1" width="123" x="160" y="138" /><rect fill="black" height="1" width="39" x="0" y="139" /><rect fill="black" height="1" width="93" x="47" y="139" /><rect fill="black" height="1" width="123" x="160" y="139" /><rect fill="black" height="1" width="40" x="0" y="140" /><rect fill="black" height="1" width="93" x="46" y="140" /><rect fill="black" height="1" width="125" x="158" y="140" /><rect fill="black" height="1" width="38" x="0" y="141" /><rect fill="black" height="1" width="92" x="46" y="141" /><rect fill="black" height="1" width="125" x="158" y="141" /><rect fill="black" height="1" width="37" x="0" y="142" /><rect fill="black" height="1" width="92" x="46" y="142" /><rect fill="black" height="1" width="125" x="158" y="142" /><rect fill="black" height="1" width="37" x="0" y="143" /><rect fill="black" height="1" width="91" x="47" y="143" /><rect fill="black" height="1" width="126" x="157" y="143" /><rect fill="black" height="1" width="37" x="0" y="144" /><rect fill="black" height="1" width="1" x="47" y="144" /><rect fill="black" height="1" width="88" x="49" y="144" /><rect fill="black" height="1" width="127" x="156" y="144" /><rect fill="black" height="1" width="37" x="0" y="145" /><rect fill="black" height="1" width="88" x="49" y="145" /><rect fill="black" height="1" width="127" x="156" y="145" /><rect fill="black" height="1" width="37" x="0" y="146" /><rect fill="black" height="1" width="86" x="50" y="146" /><rect fill="black" height="1" width="128" x="155" y="146" /><rect fill="black" height="1" width="37" x="0" y="147" /><rect fill="black" height="1" width="85" x="50" y="147" /><rect fill="black" height="1" width="129" x="154" y="147" /><rect fill="black" height="1" width="37" x="0" y="148" /><rect fill="black" height="1" width="2" x="50" y="148" /><rect fill="black" height="1" width="81" x="53" y="148" /><rect fill="black" height="1" width="129" x="154" y="148" /><rect fill="black" height="1" width="38" x="0" y="149" /><rect fill="black" height="1" width="1" x="51" y="149" /><rect fill="black" height="1" width="81" x="53" y="149" /><rect fill="black" height="1" width="129" x="154" y="149" /><rect fill="black" height="1" width="38" x="0" y="150" /><rect fill="black" height="1" width="80" x="53" y="150" /><rect fill="black" height="1" width="130" x="153" y="150" /><rect fill="black" height="1" width="38" x="0" y="151" /><rect fill="black" height="1" width="80" x="53" y="151" /><rect fill="black" height="1" width="132" x="151" y="151" /><rect fill="black" height="1" width="39" x="0" y="152" /><rect fill="black" height="1" width="1" x="52" y="152" /><rect fill="black" height="1" width="78" x="54" y="152" /><rect fill="black" height="1" width="132" x="151" y="152" /><rect fill="black" height="1" width="40" x="0" y="153" /><rect fill="black" height="1" width="2" x="52" y="153" /><rect fill="black" height="1" width="75" x="56" y="153" /><rect fill="black" height="1" width="132" x="151" y="153" /><rect fill="black" height="1" width="41" x="0" y="154" /><rect fill="black" height="1" width="1" x="53" y="154" /><rect fill="black" height="1" width="75" x="56" y="154" /><rect fill="black" height="1" width="132" x="151" y="154" /><rect fill="black" height="1" width="41" x="0" y="155" /><rect fill="black" height="1" width="2" x="54" y="155" /><rect fill="black" height="1" width="73" x="57" y="155" /><rect fill="black" height="1" width="133" x="150" y="155" /><rect fill="black" height="1" width="41" x="0" y="156" /><rect fill="black" height="1" width="2" x="54" y="156" /><rect fill="black" height="1" width="71" x="58" y="156" /><rect fill="black" height="1" width="133" x="150" y="156" /><rect fill="black" height="1" width="43" x="0" y="157" /><rect fill="black" height="1" width="70" x="59" y="157" /><rect fill="black" height="1" width="134" x="149" y="157" /><rect fill="black" height="1" width="43" x="0" y="158" /><rect fill="black" height="1" width="68" x="59" y="158" /><rect fill="black" height="1" width="1" x="128" y="158" /><rect fill="black" height="1" width="135" x="148" y="158" /><rect fill="black" height="1" width="43" x="0" y="159" /><rect fill="black" height="1" width="67" x="59" y="159" /><rect fill="black" height="1" width="135" x="148" y="159" /><rect fill="black" height="1" width="44" x="0" y="160" /><rect fill="black" height="1" width="2" x="55" y="160" /><rect fill="black" height="1" width="69" x="58" y="160" /><rect fill="black" height="1" width="135" x="148" y="160" /><rect fill="black" height="1" width="45" x="0" y="161" /><rect fill="black" height="1" width="71" x="56" y="161" /><rect fill="black" height="1" width="136" x="147" y="161" /><rect fill="black" height="1" width="45" x="0" y="162" /><rect fill="black" height="1" width="70" x="57" y="162" /><rect fill="black" height="1" width="137" x="146" y="162" /><rect fill="black" height="1" width="46" x="0" y="163" /><rect fill="black" height="1" width="1" x="53" y="163" /><rect fill="black" height="1" width="68" x="58" y="163" /><rect fill="black" height="1" width="137" x="146" y="163" /><rect fill="black" height="1" width="46" x="0" y="164" /><rect fill="black" height="1" width="67" x="58" y="164" /><rect fill="black" height="1" width="137" x="146" y="164" /><rect fill="black" height="1" width="47" x="0" y="165" /><rect fill="black" height="1" width="6" x="58" y="165" /><rect fill="black" height="1" width="5" x="66" y="165" /><rect fill="black" height="1" width="6" x="72" y="165" /><rect fill="black" height="1" width="46" x="79" y="165" /><rect fill="black" height="1" width="138" x="145" y="165" /><rect fill="black" height="1" width="47" x="0" y="166" /><rect fill="black" height="1" width="6" x="58" y="166" /><rect fill="black" height="1" width="5" x="66" y="166" /><rect fill="black" height="1" width="5" x="73" y="166" /><rect fill="black" height="1" width="44" x="80" y="166" /><rect fill="black" height="1" width="139" x="144" y="166" /><rect fill="black" height="1" width="47" x="0" y="167" /><rect fill="black" height="1" width="7" x="57" y="167" /><rect fill="black" height="1" width="5" x="66" y="167" /><rect fill="black" height="1" width="4" x="75" y="167" /><rect fill="black" height="1" width="42" x="82" y="167" /><rect fill="black" height="1" width="2" x="143" y="167" /><rect fill="black" height="1" width="137" x="146" y="167" /><rect fill="black" height="1" width="47" x="0" y="168" /><rect fill="black" height="1" width="6" x="57" y="168" /><rect fill="black" height="1" width="5" x="68" y="168" /><rect fill="black" height="1" width="3" x="77" y="168" /><rect fill="black" height="1" width="1" x="83" y="168" /><rect fill="black" height="1" width="38" x="85" y="168" /><rect fill="black" height="1" width="141" x="142" y="168" /><rect fill="black" height="1" width="47" x="0" y="169" /><rect fill="black" height="1" width="7" x="57" y="169" /><rect fill="black" height="1" width="4" x="68" y="169" /><rect fill="black" height="1" width="3" x="78" y="169" /><rect fill="black" height="1" width="37" x="85" y="169" /><rect fill="black" height="1" width="141" x="142" y="169" /><rect fill="black" height="1" width="47" x="0" y="170" /><rect fill="black" height="1" width="7" x="57" y="170" /><rect fill="black" height="1" width="3" x="69" y="170" /><rect fill="black" height="1" width="4" x="79" y="170" /><rect fill="black" height="1" width="37" x="85" y="170" /><rect fill="black" height="1" width="141" x="142" y="170" /><rect fill="black" height="1" width="46" x="0" y="171" /><rect fill="black" height="1" width="7" x="57" y="171" /><rect fill="black" height="1" width="3" x="70" y="171" /><rect fill="black" height="1" width="5" x="80" y="171" /><rect fill="black" height="1" width="34" x="87" y="171" /><rect fill="black" height="1" width="141" x="142" y="171" /><rect fill="black" height="1" width="46" x="0" y="172" /><rect fill="black" height="1" width="5" x="58" y="172" /><rect fill="black" height="1" width="3" x="70" y="172" /><rect fill="black" height="1" width="5" x="81" y="172" /><rect fill="black" height="1" width="31" x="89" y="172" /><rect fill="black" height="1" width="141" x="142" y="172" /><rect fill="black" height="1" width="46" x="0" y="173" /><rect fill="black" height="1" width="4" x="58" y="173" /><rect fill="black" height="1" width="4" x="70" y="173" /><rect fill="black" height="1" width="5" x="82" y="173" /><rect fill="black" height="1" width="29" x="91" y="173" /><rect fill="black" height="1" width="143" x="140" y="173" /><rect fill="black" height="1" width="46" x="0" y="174" /><rect fill="black" height="1" width="4" x="58" y="174" /><rect fill="black" height="1" width="4" x="71" y="174" /><rect fill="black" height="1" width="5" x="83" y="174" /><rect fill="black" height="1" width="27" x="92" y="174" /><rect fill="black" height="1" width="143" x="140" y="174" /><rect fill="black" height="1" width="48" x="0" y="175" /><rect fill="black" height="1" width="1" x="54" y="175" /><rect fill="black" height="1" width="4" x="58" y="175" /><rect fill="black" height="1" width="1" x="63" y="175" /><rect fill="black" height="1" width="4" x="71" y="175" /><rect fill="black" height="1" width="5" x="83" y="175" /><rect fill="black" height="1" width="5" x="93" y="175" /><rect fill="black" height="1" width="17" x="102" y="175" /><rect fill="black" height="1" width="143" x="140" y="175" /><rect fill="black" height="1" width="55" x="0" y="176" /><rect fill="black" height="1" width="9" x="58" y="176" /><rect fill="black" height="1" width="4" x="72" y="176" /><rect fill="black" height="1" width="7" x="84" y="176" /><rect fill="black" height="1" width="14" x="103" y="176" /><rect fill="black" height="1" width="144" x="139" y="176" /><rect fill="black" height="1" width="55" x="0" y="177" /><rect fill="black" height="1" width="9" x="58" y="177" /><rect fill="black" height="1" width="6" x="72" y="177" /><rect fill="black" height="1" width="6" x="87" y="177" /><rect fill="black" height="1" width="14" x="103" y="177" /><rect fill="black" height="1" width="143" x="140" y="177" /><rect fill="black" height="1" width="55" x="0" y="178" /><rect fill="black" height="1" width="12" x="56" y="178" /><rect fill="black" height="1" width="7" x="72" y="178" /><rect fill="black" height="1" width="4" x="90" y="178" /><rect fill="black" height="1" width="13" x="103" y="178" /><rect fill="black" height="1" width="143" x="140" y="178" /><rect fill="black" height="1" width="68" x="0" y="179" /><rect fill="black" height="1" width="11" x="72" y="179" /><rect fill="black" height="1" width="5" x="91" y="179" /><rect fill="black" height="1" width="19" x="97" y="179" /><rect fill="black" height="1" width="145" x="138" y="179" /><rect fill="black" height="1" width="68" x="0" y="180" /><rect fill="black" height="1" width="12" x="72" y="180" /><rect fill="black" height="1" width="19" x="93" y="180" /><rect fill="black" height="1" width="2" x="113" y="180" /><rect fill="black" height="1" width="145" x="138" y="180" /><rect fill="black" height="1" width="69" x="0" y="181" /><rect fill="black" height="1" width="10" x="75" y="181" /><rect fill="black" height="1" width="21" x="93" y="181" /><rect fill="black" height="1" width="147" x="136" y="181" /><rect fill="black" height="1" width="57" x="0" y="182" /><rect fill="black" height="1" width="12" x="58" y="182" /><rect fill="black" height="1" width="10" x="77" y="182" /><rect fill="black" height="1" width="3" x="96" y="182" /><rect fill="black" height="1" width="13" x="101" y="182" /><rect fill="black" height="1" width="147" x="136" y="182" /><rect fill="black" height="1" width="57" x="0" y="183" /><rect fill="black" height="1" width="12" x="59" y="183" /><rect fill="black" height="1" width="10" x="78" y="183" /><rect fill="black" height="1" width="1" x="97" y="183" /><rect fill="black" height="1" width="10" x="103" y="183" /><rect fill="black" height="1" width="148" x="135" y="183" /><rect fill="black" height="1" width="57" x="0" y="184" /><rect fill="black" height="1" width="14" x="59" y="184" /><rect fill="black" height="1" width="13" x="79" y="184" /><rect fill="black" height="1" width="10" x="103" y="184" /><rect fill="black" height="1" width="147" x="136" y="184" /><rect fill="black" height="1" width="56" x="0" y="185" /><rect fill="black" height="1" width="15" x="59" y="185" /><rect fill="black" height="1" width="14" x="79" y="185" /><rect fill="black" height="1" width="8" x="103" y="185" /><rect fill="black" height="1" width="149" x="134" y="185" /><rect fill="black" height="1" width="56" x="0" y="186" /><rect fill="black" height="1" width="16" x="59" y="186" /><rect fill="black" height="1" width="14" x="80" y="186" /><rect fill="black" height="1" width="8" x="103" y="186" /><rect fill="black" height="1" width="149" x="134" y="186" /><rect fill="black" height="1" width="56" x="0" y="187" /><rect fill="black" height="1" width="17" x="59" y="187" /><rect fill="black" height="1" width="16" x="80" y="187" /><rect fill="black" height="1" width="11" x="100" y="187" /><rect fill="black" height="1" width="151" x="132" y="187" /><rect fill="black" height="1" width="56" x="0" y="188" /><rect fill="black" height="1" width="18" x="59" y="188" /><rect fill="black" height="1" width="1" x="79" y="188" /><rect fill="black" height="1" width="24" x="83" y="188" /><rect fill="black" height="1" width="1" x="109" y="188" /><rect fill="black" height="1" width="3" x="132" y="188" /><rect fill="black" height="1" width="147" x="136" y="188" /><rect fill="black" height="1" width="56" x="0" y="189" /><rect fill="black" height="1" width="20" x="59" y="189" /><rect fill="black" height="1" width="1" x="83" y="189" /><rect fill="black" height="1" width="18" x="89" y="189" /><rect fill="black" height="1" width="152" x="131" y="189" /><rect fill="black" height="1" width="57" x="0" y="190" /><rect fill="black" height="1" width="20" x="59" y="190" /><rect fill="black" height="1" width="18" x="90" y="190" /><rect fill="black" height="1" width="151" x="132" y="190" /><rect fill="black" height="1" width="57" x="0" y="191" /><rect fill="black" height="1" width="21" x="59" y="191" /><rect fill="black" height="1" width="18" x="90" y="191" /><rect fill="black" height="1" width="152" x="131" y="191" /><rect fill="black" height="1" width="57" x="0" y="192" /><rect fill="black" height="1" width="19" x="63" y="192" /><rect fill="black" height="1" width="18" x="89" y="192" /><rect fill="black" height="1" width="153" x="130" y="192" /><rect fill="black" height="1" width="57" x="0" y="193" /><rect fill="black" height="1" width="20" x="64" y="193" /><rect fill="black" height="1" width="18" x="88" y="193" /><rect fill="black" height="1" width="154" x="129" y="193" /><rect fill="black" height="1" width="57" x="0" y="194" /><rect fill="black" height="1" width="41" x="65" y="194" /><rect fill="black" height="1" width="155" x="128" y="194" /><rect fill="black" height="1" width="59" x="0" y="195" /><rect fill="black" height="1" width="40" x="65" y="195" /><rect fill="black" height="1" width="156" x="127" y="195" /><rect fill="black" height="1" width="59" x="0" y="196" /><rect fill="black" height="1" width="41" x="64" y="196" /><rect fill="black" height="1" width="156" x="127" y="196" /><rect fill="black" height="1" width="103" x="0" y="197" /><rect fill="black" height="1" width="156" x="127" y="197" /><rect fill="black" height="1" width="103" x="0" y="198" /><rect fill="black" height="1" width="156" x="127" y="198" /><rect fill="black" height="1" width="103" x="0" y="199" /><rect fill="black" height="1" width="157" x="126" y="199" /><rect fill="black" height="1" width="102" x="0" y="200" /><rect fill="black" height="1" width="156" x="127" y="200" /><rect fill="black" height="1" width="102" x="0" y="201" /><rect fill="black" height="1" width="157" x="126" y="201" /><rect fill="black" height="1" width="100" x="0" y="202" /><rect fill="black" height="1" width="158" x="125" y="202" /><rect fill="black" height="1" width="99" x="0" y="203" /><rect fill="black" height="1" width="158" x="125" y="203" /><rect fill="black" height="1" width="99" x="0" y="204" /><rect fill="black" height="1" width="160" x="123" y="204" /><rect fill="black" height="1" width="99" x="0" y="205" /><rect fill="black" height="1" width="160" x="123" y="205" /><rect fill="black" height="1" width="99" x="0" y="206" /><rect fill="black" height="1" width="161" x="122" y="206" /><rect fill="black" height="1" width="97" x="0" y="207" /><rect fill="black" height="1" width="1" x="98" y="207" /><rect fill="black" height="1" width="162" x="121" y="207" /><rect fill="black" height="1" width="98" x="0" y="208" /><rect fill="black" height="1" width="162" x="121" y="208" /><rect fill="black" height="1" width="39" x="0" y="209" /><rect fill="black" height="1" width="57" x="40" y="209" /><rect fill="black" height="1" width="163" x="120" y="209" /><rect fill="black" height="1" width="97" x="0" y="210" /><rect fill="black" height="1" width="163" x="120" y="210" /><rect fill="black" height="1" width="95" x="0" y="211" /><rect fill="black" height="1" width="163" x="120" y="211" /></svg>